<svg id="visual" viewBox="0 0 960 540" width="960" height="540" xmlns="http://www.w3.org/2000/svg" xmlns:xlink="http://www.w3.org/1999/xlink" version="1.1"><rect x="0" y="0" width="960" height="540" fill="#fe4a49"></rect><defs><linearGradient id="grad1_0" x1="43.8%" y1="0%" x2="100%" y2="100%"><stop offset="14.444444444444446%" stop-color="#fcfcfc" stop-opacity="1"></stop><stop offset="85.55555555555554%" stop-color="#fcfcfc" stop-opacity="1"></stop></linearGradient></defs><defs><linearGradient id="grad1_1" x1="43.8%" y1="0%" x2="100%" y2="100%"><stop offset="14.444444444444446%" stop-color="#fcfcfc" stop-opacity="1"></stop><stop offset="85.55555555555554%" stop-color="#ffd3cc" stop-opacity="1"></stop></linearGradient></defs><defs><linearGradient id="grad1_2" x1="43.8%" y1="0%" x2="100%" y2="100%"><stop offset="14.444444444444446%" stop-color="#ffaa9e" stop-opacity="1"></stop><stop offset="85.55555555555554%" stop-color="#ffd3cc" stop-opacity="1"></stop></linearGradient></defs><defs><linearGradient id="grad1_3" x1="43.8%" y1="0%" x2="100%" y2="100%"><stop offset="14.444444444444446%" stop-color="#ffaa9e" stop-opacity="1"></stop><stop offset="85.55555555555554%" stop-color="#ff7e73" stop-opacity="1"></stop></linearGradient></defs><defs><linearGradient id="grad1_4" x1="43.8%" y1="0%" x2="100%" y2="100%"><stop offset="14.444444444444446%" stop-color="#fe4a49" stop-opacity="1"></stop><stop offset="85.55555555555554%" stop-color="#ff7e73" stop-opacity="1"></stop></linearGradient></defs><defs><linearGradient id="grad2_0" x1="0%" y1="0%" x2="56.3%" y2="100%"><stop offset="14.444444444444446%" stop-color="#fcfcfc" stop-opacity="1"></stop><stop offset="85.55555555555554%" stop-color="#fcfcfc" stop-opacity="1"></stop></linearGradient></defs><defs><linearGradient id="grad2_1" x1="0%" y1="0%" x2="56.3%" y2="100%"><stop offset="14.444444444444446%" stop-color="#ffd3cc" stop-opacity="1"></stop><stop offset="85.55555555555554%" stop-color="#fcfcfc" stop-opacity="1"></stop></linearGradient></defs><defs><linearGradient id="grad2_2" x1="0%" y1="0%" x2="56.3%" y2="100%"><stop offset="14.444444444444446%" stop-color="#ffd3cc" stop-opacity="1"></stop><stop offset="85.55555555555554%" stop-color="#ffaa9e" stop-opacity="1"></stop></linearGradient></defs><defs><linearGradient id="grad2_3" x1="0%" y1="0%" x2="56.3%" y2="100%"><stop offset="14.444444444444446%" stop-color="#ff7e73" stop-opacity="1"></stop><stop offset="85.55555555555554%" stop-color="#ffaa9e" stop-opacity="1"></stop></linearGradient></defs><defs><linearGradient id="grad2_4" x1="0%" y1="0%" x2="56.3%" y2="100%"><stop offset="14.444444444444446%" stop-color="#ff7e73" stop-opacity="1"></stop><stop offset="85.55555555555554%" stop-color="#fe4a49" stop-opacity="1"></stop></linearGradient></defs><g transform="translate(960, 0)"><path d="M0 540C-59.5 536.6 -119.1 533.2 -164.4 506C-209.7 478.7 -240.9 427.7 -288 396.4C-335.1 365.1 -398.2 353.6 -436.9 317.4C-475.6 281.2 -490 220.5 -503.1 163.5C-516.2 106.5 -528.1 53.2 -540 0L0 0Z" fill="#ff665e"></path><path d="M0 432C-47.6 429.3 -95.2 426.5 -131.5 404.8C-167.8 383 -192.7 342.2 -230.4 317.1C-268.1 292.1 -318.5 282.9 -349.5 253.9C-380.5 225 -392 176.4 -402.5 130.8C-413 85.2 -422.5 42.6 -432 0L0 0Z" fill="#ff9488"></path><path d="M0 324C-35.7 322 -71.4 319.9 -98.6 303.6C-125.8 287.2 -144.5 256.6 -172.8 237.9C-201.1 219.1 -238.9 212.1 -262.1 190.4C-285.4 168.7 -294 132.3 -301.9 98.1C-309.7 63.9 -316.9 31.9 -324 0L0 0Z" fill="#ffbfb5"></path><path d="M0 216C-23.8 214.6 -47.6 213.3 -65.8 202.4C-83.9 191.5 -96.4 171.1 -115.2 158.6C-134 146 -159.3 141.4 -174.7 127C-190.2 112.5 -196 88.2 -201.2 65.4C-206.5 42.6 -211.2 21.3 -216 0L0 0Z" fill="#ffe8e4"></path><path d="M0 108C-11.9 107.3 -23.8 106.6 -32.9 101.2C-41.9 95.7 -48.2 85.5 -57.6 79.3C-67 73 -79.6 70.7 -87.4 63.5C-95.1 56.2 -98 44.1 -100.6 32.7C-103.2 21.3 -105.6 10.6 -108 0L0 0Z" fill="#fcfcfc"></path></g><g transform="translate(0, 540)"><path d="M0 -540C43.9 -500.8 87.7 -461.6 147.4 -453.7C207.1 -445.8 282.6 -469.2 317.4 -436.9C352.3 -404.6 346.5 -316.5 357.6 -259.8C368.7 -203.1 396.7 -177.8 429.9 -139.7C463.1 -101.6 501.5 -50.8 540 0L0 0Z" fill="#ff665e"></path><path d="M0 -432C35.1 -400.6 70.2 -369.2 117.9 -362.9C165.7 -356.6 226 -375.3 253.9 -349.5C281.8 -323.6 277.2 -253.2 286.1 -207.8C294.9 -162.5 317.3 -142.2 343.9 -111.7C370.5 -81.3 401.2 -40.6 432 0L0 0Z" fill="#ff9488"></path><path d="M0 -324C26.3 -300.5 52.6 -276.9 88.4 -272.2C124.2 -267.5 169.5 -281.5 190.4 -262.1C211.4 -242.7 207.9 -189.9 214.6 -155.9C221.2 -121.9 238 -106.7 257.9 -83.8C277.9 -61 300.9 -30.5 324 0L0 0Z" fill="#ffbfb5"></path><path d="M0 -216C17.5 -200.3 35.1 -184.6 59 -181.5C82.8 -178.3 113 -187.7 127 -174.7C140.9 -161.8 138.6 -126.6 143 -103.9C147.5 -81.2 158.7 -71.1 172 -55.9C185.2 -40.6 200.6 -20.3 216 0L0 0Z" fill="#ffe8e4"></path><path d="M0 -108C8.8 -100.2 17.5 -92.3 29.5 -90.7C41.4 -89.2 56.5 -93.8 63.5 -87.4C70.5 -80.9 69.3 -63.3 71.5 -52C73.7 -40.6 79.3 -35.6 86 -27.9C92.6 -20.3 100.3 -10.2 108 0L0 0Z" fill="#fcfcfc"></path></g></svg>