<svg id="visual" viewBox="0 0 960 540" width="960" height="540" xmlns="http://www.w3.org/2000/svg" xmlns:xlink="http://www.w3.org/1999/xlink" version="1.1"><rect x="0" y="0" width="960" height="540" fill="#fe4a49"></rect><defs><linearGradient id="grad1_0" x1="43.8%" y1="100%" x2="100%" y2="0%"><stop offset="14.444444444444446%" stop-color="#fe4a49" stop-opacity="1"></stop><stop offset="85.55555555555554%" stop-color="#fe4a49" stop-opacity="1"></stop></linearGradient></defs><defs><linearGradient id="grad2_0" x1="0%" y1="100%" x2="56.3%" y2="0%"><stop offset="14.444444444444446%" stop-color="#fe4a49" stop-opacity="1"></stop><stop offset="85.55555555555554%" stop-color="#fe4a49" stop-opacity="1"></stop></linearGradient></defs><g transform="translate(960, 540)"><path d="M-378 0C-353.9 -33 -329.8 -65.9 -318.6 -103.5C-307.4 -141.1 -309.2 -183.3 -290.4 -211C-271.6 -238.7 -232.3 -252 -201.6 -277.5C-170.9 -303 -149 -340.7 -116.8 -359.5C-84.7 -378.3 -42.3 -378.1 0 -378L0 0Z" fill="#fcfcfc"></path></g><g transform="translate(0, 0)"><path d="M378 0C341.3 29 304.6 58 292.9 95.2C281.2 132.4 294.6 177.8 278.3 202.2C262 226.6 216.1 230.1 186.9 257.3C157.7 284.5 145.2 335.4 116.8 359.5C88.4 383.6 44.2 380.8 0 378L0 0Z" fill="#fcfcfc"></path></g></svg>