<svg id="visual" viewBox="0 0 1920 1080" width="1920" height="1080" xmlns="http://www.w3.org/2000/svg" xmlns:xlink="http://www.w3.org/1999/xlink" version="1.1"><rect x="0" y="0" width="1920" height="1080" fill="#fe4a49"></rect><path d="M0 135L24.7 141C49.3 147 98.7 159 147.8 200.5C197 242 246 313 295.2 329.7C344.3 346.3 393.7 308.7 443 277.5C492.3 246.3 541.7 221.7 590.8 236.3C640 251 689 305 738.2 309.7C787.3 314.3 836.7 269.7 886 244.3C935.3 219 984.7 213 1034 233.3C1083.3 253.7 1132.7 300.3 1181.8 299.3C1231 298.3 1280 249.7 1329.2 236.2C1378.3 222.7 1427.7 244.3 1477 244.2C1526.3 244 1575.7 222 1624.8 208.5C1674 195 1723 190 1772.2 210.8C1821.3 231.7 1870.7 278.3 1895.3 301.7L1920 325L1920 0L1895.3 0C1870.7 0 1821.3 0 1772.2 0C1723 0 1674 0 1624.8 0C1575.7 0 1526.3 0 1477 0C1427.7 0 1378.3 0 1329.2 0C1280 0 1231 0 1181.8 0C1132.7 0 1083.3 0 1034 0C984.7 0 935.3 0 886 0C836.7 0 787.3 0 738.2 0C689 0 640 0 590.8 0C541.7 0 492.3 0 443 0C393.7 0 344.3 0 295.2 0C246 0 197 0 147.8 0C98.7 0 49.3 0 24.7 0L0 0Z" fill="#fcfcfc" stroke-linecap="round" stroke-linejoin="miter"></path></svg>