<svg id="visual" viewBox="0 0 2880 1620" width="2880" height="1620" xmlns="http://www.w3.org/2000/svg" xmlns:xlink="http://www.w3.org/1999/xlink" version="1.1"><rect x="0" y="0" width="2880" height="1620" fill="#fe4a49"></rect><path d="M0 121L37 126.5C74 132 148 143 221.8 180.3C295.7 217.7 369.3 281.3 443.2 296.3C517 311.3 591 277.7 664.8 249.8C738.7 222 812.3 200 886.2 213.2C960 226.3 1034 274.7 1107.8 278.8C1181.7 283 1255.3 243 1329.2 220.2C1403 197.3 1477 191.7 1550.8 209.8C1624.7 228 1698.3 270 1772.2 269.2C1846 268.3 1920 224.7 1993.8 212.7C2067.7 200.7 2141.3 220.3 2215.2 220.2C2289 220 2363 200 2436.8 187.8C2510.7 175.7 2584.3 171.3 2658.2 190C2732 208.7 2806 250.3 2843 271.2L2880 292L2880 0L2843 0C2806 0 2732 0 2658.2 0C2584.3 0 2510.7 0 2436.8 0C2363 0 2289 0 2215.2 0C2141.3 0 2067.7 0 1993.8 0C1920 0 1846 0 1772.2 0C1698.3 0 1624.7 0 1550.8 0C1477 0 1403 0 1329.2 0C1255.3 0 1181.7 0 1107.8 0C1034 0 960 0 886.2 0C812.3 0 738.7 0 664.8 0C591 0 517 0 443.2 0C369.3 0 295.7 0 221.8 0C148 0 74 0 37 0L0 0Z" fill="#fcfcfc" stroke-linecap="round" stroke-linejoin="miter"></path></svg>