<svg id="visual" viewBox="0 0 960 540" width="960" height="540" xmlns="http://www.w3.org/2000/svg" xmlns:xlink="http://www.w3.org/1999/xlink" version="1.1"><rect x="0" y="0" width="960" height="540" fill="#fe4a49"></rect><path d="M0 80L12.3 79.2C24.7 78.3 49.3 76.7 74 76.3C98.7 76 123.3 77 148 93.5C172.7 110 197.3 142 221.8 142.3C246.3 142.7 270.7 111.3 295.2 113.8C319.7 116.3 344.3 152.7 369 159.3C393.7 166 418.3 143 443 124C467.7 105 492.3 90 517 91.2C541.7 92.3 566.3 109.7 591 109.3C615.7 109 640.3 91 664.8 87.2C689.3 83.3 713.7 93.7 738.2 93C762.7 92.3 787.3 80.7 812 81.5C836.7 82.3 861.3 95.7 886 117C910.7 138.3 935.3 167.7 947.7 182.3L960 197L960 0L947.7 0C935.3 0 910.7 0 886 0C861.3 0 836.7 0 812 0C787.3 0 762.7 0 738.2 0C713.7 0 689.3 0 664.8 0C640.3 0 615.7 0 591 0C566.3 0 541.7 0 517 0C492.3 0 467.7 0 443 0C418.3 0 393.7 0 369 0C344.3 0 319.7 0 295.2 0C270.7 0 246.3 0 221.8 0C197.3 0 172.7 0 148 0C123.3 0 98.7 0 74 0C49.3 0 24.7 0 12.3 0L0 0Z" fill="#fcfcfc" stroke-linecap="round" stroke-linejoin="miter"></path></svg>